#!OML:ASF X:\für Bonn\!DataBase\2005_08_11_Bastian_Final\c3d\Bastian.ASF
:FULLY-SPECIFIED
:DEGREES
110
root -0.422189 17.3705 21.1144 -732.275 -185.964 -719.406
lowerback 14.6953 -7.85283 2.74266
upperback 8.91658 -8.50937 3.051
thorax 1.35505 -3.57942 2.8088
lowerneck -14.1298 -1.92266 -1.53101
upperneck 9.90005 -2.85876 4.70661
head 5.38654 -1.09187 1.48066
rclavicle -1.98785e-015 -1.90833e-014
rhumerus -31.5322 -0.720195 -80.3506
rradius 25.4774
rwrist -4.74487
rhand -16.3296 3.18788
rfingers 7.12502
rthumb 9.88219 -26.5602
lclavicle -1.98785e-015 -1.90833e-014
lhumerus -18.7199 -20.6854 96.7193
lradius 23.8861
lwrist 24.0255
lhand -10.3814 -8.29279
lfingers 7.12502
lthumb 15.6163 21.0969
rfemur -2.5676 0.64099 19.5069
rtibia 34.6652
rfoot -13.199 -8.7476
rtoes -12.3114
lfemur 8.64045 4.15755 -17.8133
ltibia 18.8881
lfoot -9.2167 0.672588
ltoes -8.00292
111
root -0.418422 17.3686 21.1414 -732.306 -186.049 -719.48
lowerback 15.1943 -8.01003 2.94075
upperback 9.08971 -8.59293 3.09848
thorax 1.26203 -3.58292 2.81426
lowerneck -14.1196 -1.79861 -1.34702
upperneck 9.56776 -2.68191 4.41415
head 5.26795 -1.02705 1.37424
rclavicle -2.22639e-014 1.74931e-014
rhumerus -31.08 -0.488636 -80.2299
rradius 25.5601
rwrist -4.78339
rhand -16.4668 3.26599
rfingers 7.12502
rthumb 9.74983 -26.4883
lclavicle -2.22639e-014 1.74931e-014
lhumerus -18.5386 -21.01 96.7185
lradius 24.1218
lwrist 24.0188
lhand -10.3344 -8.4919
lfingers 7.12502
lthumb 15.6616 20.8942
rfemur -2.67688 0.646996 19.456
rtibia 34.6711
rfoot -12.948 -8.61702
rtoes -11.856
lfemur 8.41611 4.07053 -17.9119
ltibia 19.1915
lfoot -9.31562 0.843119
ltoes -8.67072
112
root -0.414994 17.3668 21.1705 -732.347 -186.126 -719.547
lowerback 15.7256 -8.16833 3.15226
upperback 9.26184 -8.66503 3.1672
thorax 1.15368 -3.5781 2.83815
lowerneck -14.0729 -1.7044 -1.29097
upperneck 9.19911 -2.52752 4.17921
head 5.13602 -0.974157 1.3049
rclavicle 1.86858e-014 -6.36111e-015
rhumerus -30.641 -0.0896579 -80.0952
rradius 25.6974
rwrist -5.00262
rhand -16.6089 3.29283
rfingers 7.12502
rthumb 9.61267 -26.4679
lclavicle 1.86858e-014 -6.36111e-015
lhumerus -18.3412 -21.3365 96.7512
lradius 24.3462
lwrist 24.0064
lhand -10.3119 -8.63118
lfingers 7.12502
lthumb 15.6833 20.7532
rfemur -2.79386 0.689422 19.4233
rtibia 34.6905
rfoot -12.6829 -8.52649
rtoes -11.2039
lfemur 8.1574 4.01459 -17.9849
ltibia 19.544
lfoot -9.39053 0.957278
ltoes -9.07162
113
root -0.412294 17.3649 21.202 -732.385 -186.208 -719.643
lowerback 16.3004 -8.32749 3.36275
upperback 9.42126 -8.73139 3.22165
thorax 1.00841 -3.56996 2.8541
lowerneck -14.0882 -1.61474 -1.23749
upperneck 8.88871 -2.38111 3.94279
head 5.03336 -0.922831 1.23457
rclavicle 2.78299e-014 -5.56597e-014
rhumerus -30.1837 0.225473 -79.9393
rradius 25.8132
rwrist -5.18045
rhand -16.7578 3.32372
rfingers 7.12502
rthumb 9.46899 -26.4435
lclavicle 2.78299e-014 -5.56597e-014
lhumerus -18.2015 -21.8573 96.7927
lradius 24.6552
lwrist 24.1228
lhand -10.3027 -8.74996
lfingers 7.12502
lthumb 15.6921 20.6337
rfemur -2.93701 0.722185 19.3526
rtibia 34.7188
rfoot -12.4266 -8.42507
rtoes -10.8132
lfemur 7.84904 4.01266 -18.0837
ltibia 19.9689
lfoot -9.47252 1.04521
ltoes -9.71854
114
root -0.40975 17.3622 21.2369 -732.477 -186.29 -719.739
lowerback 16.9708 -8.50051 3.55736
upperback 9.60157 -8.79484 3.28846
thorax 0.843047 -3.55549 2.90251
lowerneck -14.1736 -1.52561 -1.25835
upperneck 8.59977 -2.22415 3.72036
head 4.95011 -0.86625 1.18121
rclavicle -1.04958e-013 3.02153e-014
rhumerus -29.7117 0.649284 -79.7667
rradius 25.9655
rwrist -5.35382
rhand -16.9199 3.37585
rfingers 7.12502
rthumb 9.31267 -26.3985
lclavicle -1.04958e-013 3.02153e-014
lhumerus -17.9888 -22.2783 96.8013
lradius 24.934
lwrist 24.1525
lhand -10.2517 -8.86172
lfingers 7.12502
lthumb 15.7413 20.5181
rfemur -3.03788 0.79898 19.2942
rtibia 34.7666
rfoot -12.1758 -8.37795
rtoes -10.4019
lfemur 7.55194 4.06993 -18.1582
ltibia 20.4583
lfoot -9.47843 1.05716
ltoes -10.2963
115
root -0.40864 17.357 21.275 -732.582 -186.388 -719.815
lowerback 17.6786 -8.67923 3.75664
upperback 9.809 -8.84608 3.37492
thorax 0.692875 -3.52953 2.97114
lowerneck -14.2706 -1.45112 -1.32906
upperneck 8.25806 -2.07851 3.52362
head 4.85378 -0.814478 1.14301
rclavicle 1.94809e-014 -1.59028e-014
rhumerus -29.1907 1.03788 -79.5305
rradius 26.1267
rwrist -5.47036
rhand -17.0057 3.41219
rfingers 7.12502
rthumb 9.22985 -26.3658
lclavicle 1.94809e-014 -1.59028e-014
lhumerus -17.7958 -23.0014 96.822
lradius 25.3334
lwrist 24.3794
lhand -10.2702 -8.87032
lfingers 7.12502
lthumb 15.7235 20.5109
rfemur -3.14829 0.894503 19.2543
rtibia 34.8423
rfoot -11.9551 -8.34365
rtoes -9.87669
lfemur 7.22982 4.08949 -18.2253
ltibia 21.0182
lfoot -9.51713 1.11547
ltoes -10.6145
116
root -0.407675 17.3511 21.3176 -732.706 -186.451 -719.9
lowerback 18.4285 -8.87229 3.90318
upperback 10.0474 -8.90576 3.45993
thorax 0.566371 -3.50439 3.0722
lowerneck -14.4228 -1.36755 -1.34481
upperneck 7.88639 -1.92446 3.28171
head 4.75615 -0.758174 1.0824
rclavicle -2.06736e-014 -5.725e-014
rhumerus -28.5805 1.42226 -79.2898
rradius 26.2723
rwrist -5.5665
rhand -17.0761 3.44507
rfingers 7.12502
rthumb 9.16194 -26.3359
lclavicle -2.06736e-014 -5.725e-014
lhumerus -17.5321 -23.7427 96.7747
lradius 25.7568
lwrist 24.588
lhand -10.255 -8.86338
lfingers 7.12502
lthumb 15.7381 20.5167
rfemur -3.27694 0.93842 19.193
rtibia 34.9481
rfoot -11.7374 -8.27973
rtoes -9.4998
lfemur 6.84868 4.24175 -18.2689
ltibia 21.6632
lfoot -9.50137 1.07178
ltoes -11.2815
117
root -0.407754 17.3432 21.3626 -732.838 -186.537 -719.996
lowerback 19.2 -9.06644 4.00467
upperback 10.3143 -8.96023 3.54114
thorax 0.46997 -3.47407 3.19439
lowerneck -14.6206 -1.27609 -1.31922
upperneck 7.52095 -1.76489 3.01929
head 4.66753 -0.697316 1.00917
rclavicle 9.26337e-014 -3.18055e-014
rhumerus -27.9446 1.83337 -79.066
rradius 26.4453
rwrist -5.65022
rhand -17.15 3.46218
rfingers 7.12502
rthumb 9.09064 -26.3219
lclavicle 9.26337e-014 -3.18055e-014
lhumerus -17.2204 -24.4237 96.646
lradius 26.201
lwrist 24.6974
lhand -10.2455 -8.87716
lfingers 7.12502
lthumb 15.7472 20.5022
rfemur -3.42642 1.0019 19.1259
rtibia 35.1013
rfoot -11.537 -8.24028
rtoes -8.96571
lfemur 6.42743 4.3771 -18.3346
ltibia 22.3929
lfoot -9.51901 1.0903
ltoes -11.8052
118
root -0.408364 17.3327 21.4112 -733.002 -186.607 -720.111
lowerback 20.0288 -9.26491 4.01977
upperback 10.603 -9.01599 3.62823
thorax 0.388033 -3.4432 3.37576
lowerneck -14.8363 -1.17121 -1.26692
upperneck 7.13087 -1.58947 2.74156
head 4.5739 -0.627457 0.928287
rclavicle 1.90833e-014 1.11319e-014
rhumerus -27.2422 2.09129 -78.8084
rradius 26.5628
rwrist -5.50427
rhand -17.1986 3.53051
rfingers 7.12502
rthumb 9.0437 -26.2556
lclavicle 1.90833e-014 1.11319e-014
lhumerus -16.844 -25.1143 96.4463
lradius 26.6735
lwrist 24.8339
lhand -10.2299 -8.87701
lfingers 7.12502
lthumb 15.7623 20.5012
rfemur -3.57789 1.07812 19.0341
rtibia 35.2979
rfoot -11.3574 -8.19472
rtoes -8.4689
lfemur 5.96166 4.55529 -18.4068
ltibia 23.2182
lfoot -9.53683 1.0646
ltoes -12.1529
119
root -0.410762 17.3203 21.4619 -733.149 -186.68 -720.228
lowerback 20.8518 -9.45993 4.01324
upperback 10.9056 -9.06212 3.72256
thorax 0.333981 -3.40566 3.57398
lowerneck -15.0908 -1.05899 -1.19829
upperneck 6.74545 -1.4059 2.45608
head 4.48812 -0.551865 0.843097
rclavicle -8.82604e-014 8.5875e-014
rhumerus -26.5067 2.45598 -78.5315
rradius 26.7156
rwrist -5.51804
rhand -17.2256 3.60743
rfingers 7.12502
rthumb 9.01764 -26.1798
lclavicle -8.82604e-014 8.5875e-014
lhumerus -16.4153 -25.7814 96.1945
lradius 27.149
lwrist 24.8674
lhand -10.2191 -8.8599
lfingers 7.12502
lthumb 15.7727 20.5175
rfemur -3.79092 1.07551 18.9215
rtibia 35.5526
rfoot -11.175 -8.10467
rtoes -8.13384
lfemur 5.42716 4.81528 -18.4746
ltibia 24.1236
lfoot -9.59818 1.05767
ltoes -12.7475
120
root -0.413494 17.3065 21.5156 -733.3 -186.763 -720.323
lowerback 21.7251 -9.66128 4.01518
upperback 11.2125 -9.09861 3.8211
thorax 0.265114 -3.35917 3.77735
lowerneck -15.3612 -0.956257 -1.1232
upperneck 6.33957 -1.23356 2.15549
head 4.3991 -0.481123 0.751422
rclavicle -4.6118e-014 4.92986e-014
rhumerus -25.7609 2.77528 -78.2221
rradius 26.865
rwrist -5.36828
rhand -17.248 3.67625
rfingers 7.12502
rthumb 8.99603 -26.1119
lclavicle -4.6118e-014 4.92986e-014
lhumerus -15.9913 -26.4823 95.8898
lradius 27.7365
lwrist 24.9907
lhand -10.2019 -8.8358
lfingers 7.12502
lthumb 15.7892 20.5403
rfemur -4.02986 1.10253 18.8355
rtibia 35.8481
rfoot -11.04 -8.0042
rtoes -7.70298
lfemur 4.83149 5.0777 -18.5292
ltibia 25.1168
lfoot -9.6438 1.14854
ltoes -13.2831
121
root -0.418075 17.2897 21.5711 -733.424 -186.844 -720.442
lowerback 22.5859 -9.86991 3.99541
upperback 11.5284 -9.14299 3.91315
thorax 0.221112 -3.31563 3.98605
lowerneck -15.6987 -0.852084 -1.07676
upperneck 5.94726 -1.05495 1.88235
head 4.32565 -0.404187 0.673457
rclavicle -2.94201e-014 4.77083e-015
rhumerus -25.0112 3.20762 -77.9051
rradius 27.0689
rwrist -5.31969
rhand -17.2842 3.80057
rfingers 7.12502
rthumb 8.96115 -25.9891
lclavicle -2.94201e-014 4.77083e-015
lhumerus -15.531 -27.1656 95.5177
lradius 28.4358
lwrist 25.0823
lhand -10.2513 -8.77455
lfingers 7.12502
lthumb 15.7416 20.6053
rfemur -4.3312 1.05654 18.7022
rtibia 36.1846
rfoot -10.8989 -7.85845
rtoes -7.45139
lfemur 4.14669 5.31259 -18.6317
ltibia 26.186
lfoot -9.73794 1.27781
ltoes -13.6422
122
root -0.423889 17.2725 21.6285 -733.544 -186.933 -720.558
lowerback 23.479 -10.0788 3.97929
upperback 11.845 -9.17395 4.00725
thorax 0.16849 -3.26242 4.19713
lowerneck -16.0491 -0.75187 -1.04073
upperneck 5.53765 -0.876556 1.59643
head 4.24917 -0.326803 0.593387
rclavicle 1.23246e-013 -1.90833e-014
rhumerus -24.2727 3.64182 -77.5606
rradius 27.3354
rwrist -5.29438
rhand -17.3165 3.84631
rfingers 7.12502
rthumb 8.92992 -25.9447
lclavicle 1.23246e-013 -1.90833e-014
lhumerus -15.0291 -27.8216 95.0863
lradius 29.1585
lwrist 25.15
lhand -10.3337 -8.7539
lfingers 7.12502
lthumb 15.6623 20.6321
rfemur -4.65792 1.02985 18.571
rtibia 36.5334
rfoot -10.7656 -7.69577
rtoes -7.03052
lfemur 3.40585 5.57857 -18.7364
ltibia 27.3316
lfoot -9.83996 1.48255
ltoes -13.6057
